<svg xmlns="http://www.w3.org/2000/svg" width="378" height="172.5" viewBox="0 0 378 172.5">
  <g id="Group_1" data-name="Group 1" transform="translate(2.5 0.5)">
    <g id="Polygon_1" data-name="Polygon 1" transform="translate(0 75)" fill="#fff">
      <path d="M 154.9563446044922 96.5 L 1.043649911880493 96.5 L 78 0.7978723049163818 L 154.9563446044922 96.5 Z" stroke="none"/>
      <path d="M 78 1.595787048339844 L 2.08734130859375 96 L 153.9126586914063 96 L 78 1.595787048339844 M 78 0 L 156 97 L 0 97 L 78 0 Z" stroke="none" fill="#707070"/>
    </g>
    <g id="Polygon_2" data-name="Polygon 2" transform="translate(10 79)" fill="#fff">
      <path d="M 134.9887390136719 88.5 L 1.01126766204834 88.5 L 67.99998474121094 0.8235711455345154 L 134.9887390136719 88.5 Z" stroke="none"/>
      <path d="M 67.99998474121094 1.647140502929688 L 2.022537231445313 88 L 133.9774627685547 88 L 67.99998474121094 1.647140502929688 M 67.99998474121094 0 L 136 89 L 0 89 L 67.99998474121094 0 Z" stroke="none" fill="#707070"/>
    </g>
    <g id="Polygon_3" data-name="Polygon 3" transform="translate(187.5 99.478)" fill="#fff">
      <path d="M 101.9563369750977 63.54487991333008 L 1.043663144111633 63.54487991333008 L 51.5 0.7978870272636414 L 101.9563369750977 63.54487991333008 Z" stroke="none"/>
      <path d="M 51.5 1.595783233642578 L 2.087333679199219 63.04487991333008 L 100.9126663208008 63.04487991333008 L 51.5 1.595783233642578 M 51.5 -7.62939453125e-06 L 103 64.04488372802734 L 0 64.04488372802734 L 51.5 -7.62939453125e-06 Z" stroke="none" fill="#707070"/>
    </g>
    <g id="Polygon_4" data-name="Polygon 4" transform="translate(194.103 102.119)" fill="#fff">
      <path d="M 88.78360748291016 58.26282119750977 L 1.011268019676208 58.26282119750977 L 44.89742660522461 0.8235649466514587 L 88.78360748291016 58.26282119750977 Z" stroke="none"/>
      <path d="M 44.89742660522461 1.647117614746094 L 2.02252197265625 57.76282119750977 L 87.77235412597656 57.76282119750977 L 44.89742660522461 1.647117614746094 M 44.89742660522461 -3.814697265625e-06 L 89.79487609863281 58.76282119750977 L 0 58.76282119750977 L 44.89742660522461 -3.814697265625e-06 Z" stroke="none" fill="#707070"/>
    </g>
    <path id="Path_1" data-name="Path 1" d="M-363,6l73,24h88" transform="translate(441 69)" fill="none" stroke="#707070" stroke-width="1"/>
    <path id="Path_2" data-name="Path 2" d="M-291,30l39,64-35,8L-360,9Z" transform="translate(441 69)" fill="none" stroke="#707070" stroke-width="1"/>
    <path id="Path_3" data-name="Path 3" d="M-186,54.5H-66V-69H-443V102" transform="translate(441 69)" fill="none" stroke="#707070" stroke-width="1"/>
  </g>
</svg>
