<svg xmlns="http://www.w3.org/2000/svg" xmlns:xlink="http://www.w3.org/1999/xlink" width="173.5" height="89" viewBox="0 0 173.5 89">
  <defs>
    <clipPath id="clip-path">
      <rect id="Rectangle_114" data-name="Rectangle 114" width="44" height="44" transform="translate(0.473)" fill="#fff"/>
    </clipPath>
    <clipPath id="clip-path-2">
      <rect id="Rectangle_114-2" data-name="Rectangle 114" width="44" height="45" transform="translate(0.25 -0.25)" fill="#fff"/>
    </clipPath>
    <clipPath id="clip-path-3">
      <rect id="Rectangle_119" data-name="Rectangle 119" width="44" height="45" transform="translate(0.042 -0.25)" fill="#015272"/>
    </clipPath>
    <clipPath id="clip-path-4">
      <path id="Rectangle_118" data-name="Rectangle 118" d="M27,0H44a0,0,0,0,1,0,0V44a0,0,0,0,1,0,0H0a0,0,0,0,1,0,0V27A27,27,0,0,1,27,0Z" transform="translate(-0.027 44) rotate(-90)" fill="#015272"/>
    </clipPath>
  </defs>
  <g id="OwnerShapes" transform="translate(327.473 89) rotate(180)">
    <g id="Group_165" data-name="Group 165" transform="translate(197.5)">
      <rect id="Rectangle_117" data-name="Rectangle 117" width="44" height="44" transform="translate(0.473)" fill="#00719e"/>
      <g id="Mask_Group_11" data-name="Mask Group 11" transform="translate(0)" clip-path="url(#clip-path)">
        <circle id="Ellipse_26" data-name="Ellipse 26" cx="44.5" cy="44.5" r="44.5" transform="translate(-44.527)" fill="#f2d680"/>
        <circle id="Ellipse_27" data-name="Ellipse 27" cx="25.5" cy="25.5" r="25.5" transform="translate(-25.527 19)" fill="#015272"/>
      </g>
    </g>
    <g id="Group_166" data-name="Group 166" transform="translate(327.223 44.25) rotate(90)">
      <rect id="Rectangle_117-2" data-name="Rectangle 117" width="44" height="45" transform="translate(0.25 -0.25)" fill="#00719e"/>
      <g id="Mask_Group_11-2" data-name="Mask Group 11" transform="translate(0)" clip-path="url(#clip-path-2)">
        <circle id="Ellipse_26-2" data-name="Ellipse 26" cx="44.5" cy="44.5" r="44.5" transform="translate(-44.75 -0.25)" fill="#f2d680"/>
        <circle id="Ellipse_27-2" data-name="Ellipse 27" cx="25.5" cy="25.5" r="25.5" transform="translate(-25.75 18.75)" fill="#015272"/>
      </g>
    </g>
    <g id="Group_162" data-name="Group 162" transform="translate(241.751)">
      <rect id="Rectangle_118-2" data-name="Rectangle 118" width="44" height="44" transform="translate(44.223 0) rotate(90)" fill="#015272"/>
      <g id="Group_484" data-name="Group 484" transform="translate(44.223 -0.223) rotate(90)">
        <path id="Polygon_2" data-name="Polygon 2" d="M22,0,44,22H0Z" transform="translate(22.223) rotate(90)" fill="#f2d680"/>
        <path id="Polygon_3" data-name="Polygon 3" d="M22,0,44,22H0Z" transform="translate(44.223) rotate(90)" fill="#e9c717"/>
      </g>
    </g>
    <g id="Group_167" data-name="Group 167" transform="translate(286.001)">
      <rect id="Rectangle_118-3" data-name="Rectangle 118" width="41" height="44" transform="translate(-0.028)" fill="#015272"/>
      <path id="Path_38" data-name="Path 38" d="M44.25,0V40.158H0Z" transform="translate(40.158 0) rotate(90)" fill="#f2d680"/>
    </g>
    <g id="Group_164" data-name="Group 164" transform="translate(240.931 44.25)">
      <path id="Rectangle_120" data-name="Rectangle 120" d="M0,0H44a0,0,0,0,1,0,0V45a0,0,0,0,1,0,0H27A27,27,0,0,1,0,18V0A0,0,0,0,1,0,0Z" transform="translate(0.042 -0.25)" fill="#015272"/>
      <g id="Mask_Group_13" data-name="Mask Group 13" transform="translate(0)" clip-path="url(#clip-path-3)">
        <g id="Group_163" data-name="Group 163" transform="translate(0 -44.25)">
          <g id="Ellipse_30" data-name="Ellipse 30" transform="translate(21.042 21)" fill="none" stroke="#f2d680" stroke-width="4">
            <circle cx="23" cy="23" r="23" stroke="none"/>
            <circle cx="23" cy="23" r="21" fill="none"/>
          </g>
          <g id="Ellipse_31" data-name="Ellipse 31" transform="translate(9.042 9)" fill="none" stroke="#f2d680" stroke-width="4">
            <circle cx="35" cy="35" r="35" stroke="none"/>
            <circle cx="35" cy="35" r="33" fill="none"/>
          </g>
          <g id="Ellipse_32" data-name="Ellipse 32" transform="translate(0.042)" fill="none" stroke="#f2d680" stroke-width="4">
            <ellipse cx="44" cy="44.5" rx="44" ry="44.5" stroke="none"/>
            <ellipse cx="44" cy="44.5" rx="42" ry="42.5" fill="none"/>
          </g>
          <g id="Ellipse_33" data-name="Ellipse 33" transform="translate(33.042 33)" fill="none" stroke="#f2d680" stroke-width="4">
            <circle cx="11.5" cy="11.5" r="11.5" stroke="none"/>
            <circle cx="11.5" cy="11.5" r="9.5" fill="none"/>
          </g>
        </g>
      </g>
    </g>
    <g id="Group_483" data-name="Group 483" transform="translate(45)">
      <path id="Rectangle_122" data-name="Rectangle 122" d="M27,0H44a0,0,0,0,1,0,0V44a0,0,0,0,1,0,0H0a0,0,0,0,1,0,0V27A27,27,0,0,1,27,0Z" transform="translate(108.973 44) rotate(-90)" fill="#015272"/>
      <path id="Polygon_3-2" data-name="Polygon 3" d="M22,0,44,22H0Z" transform="translate(108.973)" fill="#e9c717"/>
      <g id="Mask_Group_15" data-name="Mask Group 15" transform="translate(109)" clip-path="url(#clip-path-4)">
        <path id="Polygon_2-2" data-name="Polygon 2" d="M22,0,44,22H0Z" transform="translate(-0.027 22)" fill="#f2d680"/>
      </g>
    </g>
  </g>
</svg>
