<svg xmlns="http://www.w3.org/2000/svg" width="618.319" height="587.942" viewBox="0 0 618.319 587.942"><g transform="matrix(-0.326, 0.946, -0.946, -0.326, 618.319, 162.458)" fill="#23a9c6"><path d="M185.8,86.936c15.225-33.767,63.173-33.767,78.4,0L422.641,438.325A43,43,0,0,1,383.442,499H66.558a43,43,0,0,1-39.2-60.675Z" stroke="none"/><path d="M 224.9999542236328 62.610595703125 C 217.1012420654297 62.610595703125 209.4439086914063 64.74874877929688 202.8557891845703 68.79397583007813 C 199.4264526367188 70.89962768554688 196.3344116210938 73.4984130859375 193.6654663085938 76.51809692382813 C 190.8605041503906 79.69168090820313 188.5210571289063 83.33493041992188 186.7122497558594 87.34658813476563 L 28.27008056640625 438.7359008789063 C 26.73907470703125 442.1313171386719 25.66067504882813 445.6741943359375 25.06484985351563 449.2662353515625 C 24.49197387695313 452.7195434570313 24.36111450195313 456.2370910644531 24.676025390625 459.7210693359375 C 25.28424072265625 466.4514770507813 27.56777954101563 473.0458984375 31.27978515625 478.7915649414063 C 34.99179077148438 484.5372009277344 40.06472778320313 489.3295288085938 45.9501953125 492.6504821777344 C 48.99685668945313 494.36962890625 52.25729370117188 495.6962585449219 55.64083862304688 496.5934753417969 C 59.1602783203125 497.5267333984375 62.83334350585938 497.9999694824219 66.55789184570313 497.9999694824219 L 383.442138671875 497.9999694824219 C 387.1666870117188 497.9999694824219 390.8397216796875 497.5267333984375 394.3592529296875 496.5934753417969 C 397.7427978515625 495.6962585449219 401.003173828125 494.36962890625 404.0498657226563 492.6504821777344 C 409.935302734375 489.3295288085938 415.0082397460938 484.5371398925781 418.7202453613281 478.7915344238281 C 422.4322509765625 473.0458984375 424.7157287597656 466.4514770507813 425.323974609375 459.7210693359375 C 425.6388549804688 456.2370910644531 425.5080261230469 452.7195434570313 424.9351196289063 449.2662353515625 C 424.3392333984375 445.6741943359375 423.2608642578125 442.1313171386719 421.7298583984375 438.7359008789063 L 263.2877197265625 87.34658813476563 C 261.4788513183594 83.33493041992188 259.1394653320313 79.69168090820313 256.33447265625 76.51809692382813 C 253.6655120849609 73.4984130859375 250.5734558105469 70.89962768554688 247.1441192626953 68.79397583007813 C 240.5560150146484 64.74874877929688 232.898681640625 62.610595703125 224.9999542236328 62.610595703125 M 224.9999847412109 61.61056518554688 C 240.7933197021484 61.61056518554688 256.586669921875 70.05221557617188 264.1993408203125 86.93551635742188 L 422.6414489746094 438.3248596191406 C 435.4732971191406 466.7829284667969 414.6593627929688 498.9999694824219 383.442138671875 498.9999694824219 L 66.55789184570313 498.9999694824219 C 35.34066772460938 498.9999694824219 14.5267333984375 466.7829284667969 27.35845947265625 438.3248596191406 L 185.8006286621094 86.93551635742188 C 193.413330078125 70.05221557617188 209.2066497802734 61.61056518554688 224.9999847412109 61.61056518554688 Z" stroke="none" fill="rgba(112,112,112,0)"/></g></svg>