<svg xmlns="http://www.w3.org/2000/svg" xmlns:xlink="http://www.w3.org/1999/xlink" width="55" height="55" viewBox="0 0 55 55">
  <defs>
    <filter id="Ellipse_44" x="0" y="0" width="55" height="55" filterUnits="userSpaceOnUse">
      <feOffset input="SourceAlpha"/>
      <feGaussianBlur stdDeviation="1.5" result="blur"/>
      <feFlood flood-opacity="0.161"/>
      <feComposite operator="in" in2="blur"/>
      <feComposite in="SourceGraphic"/>
    </filter>
  </defs>
  <g id="Group_254" data-name="Group 254" transform="translate(-176.5 -574.5)">
    <g transform="matrix(1, 0, 0, 1, 176.5, 574.5)" filter="url(#Ellipse_44)">
      <circle id="Ellipse_44-2" data-name="Ellipse 44" cx="23" cy="23" r="23" transform="translate(4.5 4.5)" fill="#fff"/>
    </g>
    <path id="_ionicons_svg_ios-pin" d="M121.769,48C116.376,48,112,52.064,112,57.07c0,7.056,9.769,19.152,9.769,19.152s9.769-12.1,9.769-19.152C131.538,52.064,127.163,48,121.769,48Zm0,12.951a3.182,3.182,0,1,1,3.182-3.182A3.182,3.182,0,0,1,121.769,60.951Z" transform="translate(82.462 539.889)" fill="#203959"/>
    <path id="_ionicons_svg_ios-pin-2" data-name="_ionicons_svg_ios-pin" d="M121.769,48C116.376,48,112,52.064,112,57.07c0,7.056,9.769,19.152,9.769,19.152s9.769-12.1,9.769-19.152C131.538,52.064,127.163,48,121.769,48Zm0,12.951a3.182,3.182,0,1,1,3.182-3.182A3.182,3.182,0,0,1,121.769,60.951Z" transform="translate(82.462 539.889)" fill="#203959"/>
  </g>
</svg>
