<svg xmlns="http://www.w3.org/2000/svg" xmlns:xlink="http://www.w3.org/1999/xlink" width="633" height="1370" viewBox="0 0 633 1370">
  <defs>
    <linearGradient id="linear-gradient" x1="0.5" x2="0.5" y2="1" gradientUnits="objectBoundingBox">
      <stop offset="0" stop-color="#1c3452"/>
      <stop offset="1" stop-color="#0c1e35"/>
    </linearGradient>
  </defs>
  <g id="Group_430" data-name="Group 430" transform="translate(3144.151 -2547)">
    <g id="Rectangle_233" data-name="Rectangle 233" transform="translate(-3144.151 2547)" stroke="#707070" stroke-width="1" fill="url(#linear-gradient)">
      <rect width="633" height="1370" stroke="none"/>
      <rect x="0.5" y="0.5" width="632" height="1369" fill="none"/>
    </g>
    <g id="Group_427" data-name="Group 427" transform="translate(-2908.032 3171.664)">
      <g id="logo" transform="translate(-6.999 -5.087)">
        <g id="Layer_1" data-name="Layer 1" transform="translate(0 0)">
          <path id="Path_28" data-name="Path 28" d="M980.5,274.251V245.5h39.745s10.655-.169,10.655,10.993V289.3l-25.2-24.692-13.361,21.817S990.14,280.339,980.5,274.251Z" transform="translate(-897.121 -245.499)" fill="#ffedb7"/>
          <path id="Path_29" data-name="Path 29" d="M754.171,277.825s-11.5-4.566-18.942-3.213v17.42H719.5V280.869L754.171,255.5Z" transform="translate(-680.263 -253.809)" fill="#ffedb7"/>
          <path id="Path_30" data-name="Path 30" d="M548.893,245.5l-56.15,40.59H487.5l39.237-26.045V254.8s-1.184-9.3,10.486-9.3Z" transform="translate(-487.5 -245.5)" fill="#ffedb7"/>
          <path id="Path_31" data-name="Path 31" d="M880.8,482.155H860.5v45.664h8.118a16.457,16.457,0,0,0,12.177-5.368,35.069,35.069,0,0,0,4.4-6.809H868.618l19.449-33.487c.085-2.283-4.82-9.048-7.272-10.655Z" transform="translate(-797.416 -433.277)" fill="#ffedb7"/>
          <path id="Path_32" data-name="Path 32" d="M1023.5,747.17h35.517s5.75-2.368,6.765-8.456l41.436,3.213s-2.537.507-6.765-6.427h-69.68S1026.375,744.8,1023.5,747.17Z" transform="translate(-932.848 -652.628)" fill="#ffedb7"/>
          <path id="Path_33" data-name="Path 33" d="M1084.669,483.906l32.641-.169V470.715l13.108,13.107h6.342L1094.309,444.5l-9.809,17.758S1089.066,470.884,1084.669,483.906Z" transform="translate(-983.532 -410.844)" fill="#ffedb7"/>
          <path id="Path_34" data-name="Path 34" d="M860.5,429.956V421.5s8.964.169,10.824,4.228v4.228Z" transform="translate(-797.416 -391.734)" fill="#ffedb7"/>
          <path id="Path_35" data-name="Path 35" d="M1006.265,595.5s.338,7.272-1.353,12.516H999.5Z" transform="translate(-912.907 -536.306)" fill="#ffedb7"/>
          <path id="Path_36" data-name="Path 36" d="M592.473,534.5H548.5l28.921,2.706v32.641s0,10.148,13.192,8.964V591.5h1.86Z" transform="translate(-538.183 -485.622)" fill="#ffedb7"/>
          <line id="Line_12" data-name="Line 12" x1="2.057" y2="2.095" transform="translate(131.751 43.892)" fill="none"/>
          <line id="Line_13" data-name="Line 13" x1="1.319" y2="1.343" transform="translate(131.283 42.708)" fill="none"/>
          <line id="Line_14" data-name="Line 14" x1="1.321" y2="1.345" transform="translate(130.077 41.522)" fill="none"/>
          <line id="Line_15" data-name="Line 15" x1="1.321" y2="1.343" transform="translate(128.871 40.338)" fill="none"/>
          <line id="Line_16" data-name="Line 16" x1="1.319" y2="1.343" transform="translate(127.667 39.155)" fill="none"/>
          <line id="Line_17" data-name="Line 17" x1="2.058" y2="2.095" transform="translate(125.722 37.971)" fill="none"/>
          <line id="Line_18" data-name="Line 18" x1="1.319" y2="1.345" transform="translate(125.133 36.667)" fill="none"/>
          <line id="Line_19" data-name="Line 19" x1="1.319" y2="1.343" transform="translate(123.927 35.483)" fill="none"/>
          <line id="Line_20" data-name="Line 20" x1="1.321" y2="1.343" transform="translate(122.721 34.299)" fill="none"/>
          <line id="Line_21" data-name="Line 21" x1="1.321" y2="1.343" transform="translate(121.515 33.115)" fill="none"/>
          <line id="Line_22" data-name="Line 22" x1="2.058" y2="2.095" transform="translate(119.572 31.929)" fill="none"/>
          <line id="Line_23" data-name="Line 23" x1="1.319" y2="1.343" transform="translate(119.105 30.746)" fill="none"/>
          <line id="Line_24" data-name="Line 24" x1="1.319" y2="1.343" transform="translate(117.9 29.562)" fill="none"/>
          <line id="Line_25" data-name="Line 25" x1="1.319" y2="1.343" transform="translate(116.694 28.378)" fill="none"/>
          <line id="Line_26" data-name="Line 26" x1="1.319" y2="1.345" transform="translate(115.488 27.192)" fill="none"/>
          <line id="Line_27" data-name="Line 27" x1="2.058" y2="2.095" transform="translate(113.543 26.008)" fill="none"/>
          <line id="Line_28" data-name="Line 28" x1="1.319" y2="1.343" transform="translate(113.076 24.824)" fill="none"/>
          <line id="Line_29" data-name="Line 29" x1="1.319" y2="1.343" transform="translate(111.87 23.641)" fill="none"/>
          <line id="Line_30" data-name="Line 30" x1="1.319" y2="1.343" transform="translate(110.664 22.457)" fill="none"/>
          <g id="Group_156" data-name="Group 156" transform="translate(19.23 1.637)">
            <line id="Line_31" data-name="Line 31" x2="1.302" y2="1.805" transform="translate(35.758 2.97)" fill="#999"/>
            <line id="Line_32" data-name="Line 32" x2="1.302" y2="1.805" transform="translate(37.128 1.98)" fill="#999"/>
            <line id="Line_33" data-name="Line 33" x2="1.304" y2="1.805" transform="translate(38.498 0.989)" fill="#999"/>
            <line id="Line_34" data-name="Line 34" x2="2.033" y2="2.816" transform="translate(39.868)" fill="#999"/>
            <line id="Line_35" data-name="Line 35" x2="1.302" y2="1.805" transform="translate(34.388 3.959)" fill="#999"/>
            <line id="Line_36" data-name="Line 36" x2="2.033" y2="2.816" transform="translate(33.019 4.949)" fill="#999"/>
            <line id="Line_37" data-name="Line 37" x2="1.304" y2="1.805" transform="translate(31.647 5.938)" fill="#999"/>
            <line id="Line_38" data-name="Line 38" x2="1.304" y2="1.805" transform="translate(30.277 6.927)" fill="#999"/>
            <line id="Line_39" data-name="Line 39" x2="1.304" y2="1.805" transform="translate(28.907 7.918)" fill="#999"/>
            <line id="Line_40" data-name="Line 40" x2="1.304" y2="1.805" transform="translate(27.537 8.908)" fill="#999"/>
            <line id="Line_41" data-name="Line 41" x2="2.035" y2="2.816" transform="translate(26.167 9.897)" fill="#999"/>
            <line id="Line_42" data-name="Line 42" x2="1.304" y2="1.805" transform="translate(24.797 10.887)" fill="#999"/>
            <line id="Line_43" data-name="Line 43" x2="1.304" y2="1.805" transform="translate(23.427 11.876)" fill="#999"/>
            <line id="Line_44" data-name="Line 44" x2="1.304" y2="1.805" transform="translate(22.057 12.867)" fill="#999"/>
            <line id="Line_45" data-name="Line 45" x2="1.304" y2="1.805" transform="translate(20.688 13.856)" fill="#999"/>
            <line id="Line_46" data-name="Line 46" x2="2.033" y2="2.814" transform="translate(19.318 14.846)" fill="#999"/>
            <line id="Line_47" data-name="Line 47" x2="1.304" y2="1.805" transform="translate(17.811 15.935)" fill="#999"/>
            <line id="Line_48" data-name="Line 48" x2="1.304" y2="1.805" transform="translate(16.441 16.924)" fill="#999"/>
            <line id="Line_49" data-name="Line 49" x2="1.304" y2="1.805" transform="translate(15.071 17.914)" fill="#999"/>
            <line id="Line_50" data-name="Line 50" x2="1.302" y2="1.805" transform="translate(13.701 18.903)" fill="#999"/>
            <line id="Line_51" data-name="Line 51" x2="2.033" y2="2.816" transform="translate(12.331 19.893)" fill="#999"/>
            <line id="Line_52" data-name="Line 52" x2="1.302" y2="1.805" transform="translate(10.961 20.884)" fill="#999"/>
            <line id="Line_53" data-name="Line 53" x2="1.302" y2="1.805" transform="translate(9.591 21.873)" fill="#999"/>
            <line id="Line_54" data-name="Line 54" x2="1.304" y2="1.805" transform="translate(8.22 22.862)" fill="#999"/>
            <line id="Line_55" data-name="Line 55" x2="1.304" y2="1.805" transform="translate(6.85 23.852)" fill="#999"/>
            <line id="Line_56" data-name="Line 56" x2="2.035" y2="2.816" transform="translate(5.48 24.841)" fill="#999"/>
            <line id="Line_57" data-name="Line 57" x2="1.304" y2="1.805" transform="translate(4.11 25.832)" fill="#999"/>
            <line id="Line_58" data-name="Line 58" x2="1.304" y2="1.805" transform="translate(2.74 26.822)" fill="#999"/>
            <line id="Line_59" data-name="Line 59" x2="1.304" y2="1.805" transform="translate(1.37 27.811)" fill="#999"/>
            <line id="Line_60" data-name="Line 60" x2="2.035" y2="2.816" transform="translate(0 28.8)" fill="#999"/>
          </g>
          <line id="Line_61" data-name="Line 61" x1="0.027" y1="2.938" transform="translate(101.992 80.076)" fill="none"/>
          <line id="Line_62" data-name="Line 62" x1="0.017" y1="1.882" transform="translate(103.691 81.116)" fill="none"/>
          <line id="Line_63" data-name="Line 63" x1="0.017" y1="1.882" transform="translate(105.383 81.101)" fill="none"/>
          <line id="Line_64" data-name="Line 64" x1="0.017" y1="1.882" transform="translate(107.072 81.086)" fill="none"/>
          <line id="Line_65" data-name="Line 65" x1="0.017" y1="1.882" transform="translate(108.762 81.071)" fill="none"/>
          <line id="Line_66" data-name="Line 66" x1="0.025" y1="2.938" transform="translate(110.443 80)" fill="none"/>
          <line id="Line_67" data-name="Line 67" x1="0.017" y1="1.882" transform="translate(112.312 81.039)" fill="none"/>
          <line id="Line_68" data-name="Line 68" x1="0.017" y1="1.882" transform="translate(114.001 81.023)" fill="none"/>
          <line id="Line_69" data-name="Line 69" x1="0.017" y1="1.882" transform="translate(115.691 81.008)" fill="none"/>
          <line id="Line_70" data-name="Line 70" x1="0.017" y1="1.882" transform="translate(117.382 80.993)" fill="none"/>
          <line id="Line_71" data-name="Line 71" x1="0.027" y1="2.938" transform="translate(119.061 79.922)" fill="none"/>
          <line id="Line_72" data-name="Line 72" x1="0.017" y1="1.882" transform="translate(120.761 80.962)" fill="none"/>
          <line id="Line_73" data-name="Line 73" x1="0.017" y1="1.882" transform="translate(122.451 80.947)" fill="none"/>
          <line id="Line_74" data-name="Line 74" x1="0.017" y1="1.882" transform="translate(124.142 80.932)" fill="none"/>
          <line id="Line_75" data-name="Line 75" x1="0.017" y1="1.882" transform="translate(125.832 80.917)" fill="none"/>
          <line id="Line_76" data-name="Line 76" x1="0.025" y1="2.938" transform="translate(127.513 79.846)" fill="none"/>
          <line id="Line_77" data-name="Line 77" x1="0.017" y1="1.882" transform="translate(129.211 80.886)" fill="none"/>
          <line id="Line_78" data-name="Line 78" x1="0.017" y1="1.882" transform="translate(130.902 80.871)" fill="none"/>
          <line id="Line_79" data-name="Line 79" x1="0.017" y1="1.882" transform="translate(132.592 80.856)" fill="none"/>
          <g id="Group_157" data-name="Group 157" transform="translate(54.286 52.045)">
            <line id="Line_80" data-name="Line 80" x2="2.226" y2="0.003" transform="translate(0.1 5.07)" fill="#999"/>
            <line id="Line_81" data-name="Line 81" x2="2.227" y2="0.005" transform="translate(0.103 3.379)" fill="#999"/>
            <line id="Line_82" data-name="Line 82" x2="2.226" y2="0.005" transform="translate(0.108 1.69)" fill="#999"/>
            <line id="Line_83" data-name="Line 83" x2="3.472" y2="0.007" transform="translate(0.112)" fill="#999"/>
            <line id="Line_84" data-name="Line 84" x2="2.226" y2="0.005" transform="translate(0.096 6.76)" fill="#999"/>
            <line id="Line_85" data-name="Line 85" x2="3.472" y2="0.008" transform="translate(0.093 8.45)" fill="#999"/>
            <line id="Line_86" data-name="Line 86" x2="2.227" y2="0.005" transform="translate(0.088 10.139)" fill="#999"/>
            <line id="Line_87" data-name="Line 87" x2="2.226" y2="0.005" transform="translate(0.085 11.83)" fill="#999"/>
            <line id="Line_88" data-name="Line 88" x2="2.226" y2="0.005" transform="translate(0.081 13.52)" fill="#999"/>
            <line id="Line_89" data-name="Line 89" x2="2.226" y2="0.005" transform="translate(0.078 15.21)" fill="#999"/>
            <line id="Line_90" data-name="Line 90" x2="3.474" y2="0.007" transform="translate(0.073 16.901)" fill="#999"/>
            <line id="Line_91" data-name="Line 91" x2="2.226" y2="0.005" transform="translate(0.069 18.59)" fill="#999"/>
            <line id="Line_92" data-name="Line 92" x2="2.226" y2="0.005" transform="translate(0.066 20.28)" fill="#999"/>
            <line id="Line_93" data-name="Line 93" x2="2.227" y2="0.005" transform="translate(0.061 21.971)" fill="#999"/>
            <line id="Line_94" data-name="Line 94" x2="2.227" y2="0.005" transform="translate(0.057 23.661)" fill="#999"/>
            <line id="Line_95" data-name="Line 95" x2="3.472" y2="0.008" transform="translate(0.054 25.35)" fill="#999"/>
            <line id="Line_96" data-name="Line 96" x2="2.227" y2="0.005" transform="translate(0.049 27.211)" fill="#999"/>
            <line id="Line_97" data-name="Line 97" x2="2.227" y2="0.005" transform="translate(0.046 28.9)" fill="#999"/>
            <line id="Line_98" data-name="Line 98" x2="2.226" y2="0.005" transform="translate(0.042 30.59)" fill="#999"/>
            <line id="Line_99" data-name="Line 99" x2="2.226" y2="0.005" transform="translate(0.039 32.279)" fill="#999"/>
            <line id="Line_100" data-name="Line 100" x2="3.474" y2="0.007" transform="translate(0.034 33.971)" fill="#999"/>
            <line id="Line_101" data-name="Line 101" x2="2.226" y2="0.005" transform="translate(0.03 35.66)" fill="#999"/>
            <line id="Line_102" data-name="Line 102" x2="2.226" y2="0.005" transform="translate(0.027 37.35)" fill="#999"/>
            <line id="Line_103" data-name="Line 103" x2="2.226" y2="0.005" transform="translate(0.024 39.041)" fill="#999"/>
            <line id="Line_104" data-name="Line 104" x2="2.227" y2="0.005" transform="translate(0.019 40.731)" fill="#999"/>
            <line id="Line_105" data-name="Line 105" x2="3.474" y2="0.008" transform="translate(0.015 42.42)" fill="#999"/>
            <line id="Line_106" data-name="Line 106" x2="2.226" y2="0.005" transform="translate(0.012 44.111)" fill="#999"/>
            <line id="Line_107" data-name="Line 107" x2="2.226" y2="0.005" transform="translate(0.008 45.801)" fill="#999"/>
            <line id="Line_108" data-name="Line 108" x2="2.227" y2="0.005" transform="translate(0.003 47.491)" fill="#999"/>
            <line id="Line_109" data-name="Line 109" x2="3.474" y2="0.007" transform="translate(0 49.182)" fill="#999"/>
          </g>
        </g>
      </g>
      <text id="Yakha" transform="translate(27.742 119.043)" fill="#ffedb7" font-size="17" font-family="SegoeUI, Segoe UI" letter-spacing="0.743em"><tspan x="0" y="0">YAKHA</tspan></text>
    </g>
  </g>
</svg>
