<svg xmlns="http://www.w3.org/2000/svg" width="725.204" height="814.187" viewBox="0 0 725.204 814.187">
  <g id="Group_416" data-name="Group 416" transform="matrix(-0.866, -0.5, 0.5, -0.866, 364.354, 1290.55)">
    <path id="Path_160" data-name="Path 160" d="M359.31,730.546,438.8,582.67a55.944,55.944,0,0,0,9.7-2.423c35.09-12.031,57.481-51.215,53.132-93.383-2.445-23.386-12.49-44.536-28.36-59.734-16.469-15.7-37.135-23.157-58.238-21.048a78.135,78.135,0,0,0-15.309,3.32c-26.859,9.285-46.2,34.38-51.882,64.526a20.083,20.083,0,0,0-5.493.995,19.8,19.8,0,0,0,5.994,38.55c4.009,19.114,13.281,36.28,26.74,49.145a79.842,79.842,0,0,0,28.135,17.456L315.645,718.043Zm32.106-185.13c-11.763-11.3-19.322-27.319-21.171-44.974-3.129-31.226,12.46-59.968,37.148-68.433a47.287,47.287,0,0,1,10.05-2.194c14.08-1.416,27.986,3.673,39.324,14.514,11.933,11.3,19.4,27.234,21.188,44.991,3.273,31.2-12.388,60.024-37.152,68.441a40.671,40.671,0,0,1-10.054,2.147c-13.944,1.42-27.922-3.728-39.333-14.492Zm0,0" transform="translate(167.975 26.283)" fill="#363636"/>
    <path id="Path_161" data-name="Path 161" d="M324.212,497.168l-25.04,335.165,8.809,20.47,48.392-218.893L325.207,495.48Zm0,0" transform="translate(114.417 318.082)" fill="#363636"/>
    <path id="Path_162" data-name="Path 162" d="M300.191,482.308a103.332,103.332,0,0,0-9.655,32.012c-5.335,41.9,15.934,81.688,50.764,94.688a72.225,72.225,0,0,0,9.646,2.657l99.118,187.7,85.518,379.565,3.554-30.783L513.043,767.623l-41.365-11.98L394.526,606.886a79.844,79.844,0,0,0,20.712-13.621c16.372-14.867,26.944-35.885,29.967-59.1,5.395-41.985-15.929-81.773-50.769-94.684a71.293,71.293,0,0,0-15.2-3.733,69.968,69.968,0,0,0-34.15,4.311c-31.54.859-50.484-34.184-57.184-40.038-6.823-5.943-25.036.5-23.871,5.952,1.114,5.182,44.957,47.631,36.157,76.336ZM479.467,783.739a12.432,12.432,0,1,1-10.875,13.876,12.517,12.517,0,0,1,10.875-13.876ZM314.177,517.287c2.245-17.7,10.165-33.4,22.289-44.434,11.589-10.518,25.746-15.266,39.732-13.519a48.813,48.813,0,0,1,9.9,2.436c24.615,9.11,39.494,38.248,35.515,69.372-2.334,17.63-10.228,33.487-22.447,44.46-11.563,10.484-25.652,15.326-39.63,13.549a48.974,48.974,0,0,1-10.016-2.521c-24.441-9.085-39.32-38.215-35.341-69.342Zm0,0" transform="translate(0 0)" fill="#363636"/>
  </g>
</svg>
