<svg xmlns="http://www.w3.org/2000/svg" xmlns:xlink="http://www.w3.org/1999/xlink" width="266" height="100" viewBox="0 0 266 100">
  <defs>
    <clipPath id="clip-path">
      <rect id="Rectangle_115" data-name="Rectangle 115" width="54" height="54" fill="#fff"/>
    </clipPath>
    <clipPath id="clip-path-2">
      <rect id="Rectangle_119" data-name="Rectangle 119" width="50" height="50" transform="translate(0.104)" fill="#015272"/>
    </clipPath>
    <clipPath id="clip-path-3">
      <path id="Rectangle_118" data-name="Rectangle 118" d="M27,0H54a0,0,0,0,1,0,0V54a0,0,0,0,1,0,0H0a0,0,0,0,1,0,0V27A27,27,0,0,1,27,0Z" transform="translate(109 54) rotate(-90)" fill="#015272"/>
    </clipPath>
    <clipPath id="clip-path-4">
      <rect id="Rectangle_114" data-name="Rectangle 114" width="50" height="50" fill="#fff"/>
    </clipPath>
    <clipPath id="clip-path-5">
      <rect id="Rectangle_114-2" data-name="Rectangle 114" width="50" height="50" fill="#d98e04"/>
    </clipPath>
  </defs>
  <g id="Group_294" data-name="Group 294" transform="translate(-109)">
    <path id="Path_116" data-name="Path 116" d="M54,27h0Z" transform="translate(109)" fill="#e9c717"/>
    <g id="Group_167" data-name="Group 167" transform="translate(2026 -1353)">
      <rect id="Rectangle_118-2" data-name="Rectangle 118" width="50" height="50" transform="translate(-1701 1353)" fill="#262014"/>
      <path id="Path_38" data-name="Path 38" d="M49.62,0h0Z" transform="translate(-1701 1353) rotate(90)" fill="#262014"/>
    </g>
    <g id="Group_164" data-name="Group 164" transform="translate(2087.896 -1496)">
      <path id="Rectangle_120" data-name="Rectangle 120" d="M0,0H50a0,0,0,0,1,0,0V50a0,0,0,0,1,0,0H27A27,27,0,0,1,0,23V0A0,0,0,0,1,0,0Z" transform="translate(-1812.896 1546)" fill="#262014"/>
      <g id="Mask_Group_13" data-name="Mask Group 13" transform="translate(-1813 1546)" clip-path="url(#clip-path-2)">
        <g id="Group_163" data-name="Group 163" transform="translate(0 -50.104)">
          <g id="Ellipse_30" data-name="Ellipse 30" transform="translate(24.104 24.104)" fill="none" stroke="#f29e6d" stroke-width="4">
            <circle cx="26" cy="26" r="26" stroke="none"/>
            <circle cx="26" cy="26" r="24" fill="none"/>
          </g>
          <g id="Ellipse_31" data-name="Ellipse 31" transform="translate(11.104 11.104)" fill="none" stroke="#f29e6d" stroke-width="4">
            <circle cx="39" cy="39" r="39" stroke="none"/>
            <circle cx="39" cy="39" r="37" fill="none"/>
          </g>
          <g id="Ellipse_32" data-name="Ellipse 32" transform="translate(0.104 0.104)" fill="none" stroke="#f29e6d" stroke-width="4">
            <circle cx="50" cy="50" r="50" stroke="none"/>
            <circle cx="50" cy="50" r="48" fill="none"/>
          </g>
          <g id="Ellipse_33" data-name="Ellipse 33" transform="translate(37.104 37.104)" fill="none" stroke="#f29e6d" stroke-width="4">
            <circle cx="13" cy="13" r="13" stroke="none"/>
            <circle cx="13" cy="13" r="11" fill="none"/>
          </g>
        </g>
      </g>
    </g>
    <path id="tool" d="M44.388,5.793,38.6,0,21.263,17.332a1.427,1.427,0,0,0-1.008-.418h0a1.426,1.426,0,0,0-1.008.418l-7.731,7.731a1.426,1.426,0,0,0,0,2.017l8.168,8.168a1.426,1.426,0,0,0,2.017,0l5.58-5.58a1.426,1.426,0,0,0,.361-1.406l-1.076-3.7,2.883-.76.962-3.652,3.652-.963.963-3.652,3.652-.963.963-3.652,3.652-.963,1.1-4.161Zm-23.7,26.43L14.54,26.072l5.714-5.713,2.991,3,1.421,4.894Z" transform="translate(322.597 9.206)" fill="#ffedb7"/>
    <g id="Group_293" data-name="Group 293" transform="translate(4 -4)">
      <g id="Group_166" data-name="Group 166" transform="translate(321 54)">
        <rect id="Rectangle_117" data-name="Rectangle 117" width="50" height="50" fill="#736049"/>
      </g>
      <g id="hook" transform="translate(334.045 64.202)">
        <path id="Path_86" data-name="Path 86" d="M136,272h.984v.984H136Zm0,0" transform="translate(-127.632 -255.264)" fill="#d99962"/>
        <path id="Path_87" data-name="Path 87" d="M168,272h.984v.984H168Zm0,0" transform="translate(-157.663 -255.264)" fill="#d99962"/>
        <path id="Path_88" data-name="Path 88" d="M200,272h.984v.984H200Zm0,0" transform="translate(-187.694 -255.264)" fill="#d99962"/>
        <path id="Path_89" data-name="Path 89" d="M136,304h.984v.984H136Zm0,0" transform="translate(-127.632 -285.295)" fill="#d99962"/>
        <path id="Path_90" data-name="Path 90" d="M168,304h.984v.984H168Zm0,0" transform="translate(-157.663 -285.295)" fill="#d99962"/>
        <path id="Path_91" data-name="Path 91" d="M200,304h.984v.984H200Zm0,0" transform="translate(-187.694 -285.295)" fill="#d99962"/>
        <path id="Path_92" data-name="Path 92" d="M232,304h.984v.984H232Zm0,0" transform="translate(-217.725 -285.295)" fill="#d99962"/>
        <path id="Path_93" data-name="Path 93" d="M264,304h.984v.984H264Zm0,0" transform="translate(-247.756 -285.295)" fill="#d99962"/>
        <path id="Path_94" data-name="Path 94" d="M136,336h.984v.984H136Zm0,0" transform="translate(-127.632 -315.326)" fill="#d99962"/>
        <path id="Path_95" data-name="Path 95" d="M168,336h.984v.984H168Zm0,0" transform="translate(-157.663 -315.326)" fill="#d99962"/>
        <path id="Path_96" data-name="Path 96" d="M200,336h.984v.984H200Zm0,0" transform="translate(-187.694 -315.326)" fill="#d99962"/>
        <path id="Path_97" data-name="Path 97" d="M232,336h.984v.984H232Zm0,0" transform="translate(-217.725 -315.326)" fill="#d99962"/>
        <path id="Path_98" data-name="Path 98" d="M264,336h.984v.984H264Zm0,0" transform="translate(-247.756 -315.326)" fill="#d99962"/>
        <path id="Path_99" data-name="Path 99" d="M136,368h.984v.984H136Zm0,0" transform="translate(-127.632 -345.357)" fill="#d99962"/>
        <path id="Path_100" data-name="Path 100" d="M168,368h.984v.984H168Zm0,0" transform="translate(-157.663 -345.357)" fill="#d99962"/>
        <path id="Path_101" data-name="Path 101" d="M200,368h.984v.984H200Zm0,0" transform="translate(-187.694 -345.357)" fill="#d99962"/>
        <path id="Path_102" data-name="Path 102" d="M232,368h.984v.984H232Zm0,0" transform="translate(-217.725 -345.357)" fill="#d99962"/>
        <path id="Path_103" data-name="Path 103" d="M264,368h.984v.984H264Zm0,0" transform="translate(-247.756 -345.357)" fill="#d99962"/>
        <path id="Path_104" data-name="Path 104" d="M136,400h.984v.984H136Zm0,0" transform="translate(-127.632 -375.389)" fill="#d99962"/>
        <path id="Path_105" data-name="Path 105" d="M168,400h.984v.984H168Zm0,0" transform="translate(-157.663 -375.389)" fill="#d99962"/>
        <path id="Path_106" data-name="Path 106" d="M200,400h.984v.984H200Zm0,0" transform="translate(-187.694 -375.389)" fill="#d99962"/>
        <path id="Path_107" data-name="Path 107" d="M232,400h.984v.984H232Zm0,0" transform="translate(-217.725 -375.389)" fill="#d99962"/>
        <path id="Path_108" data-name="Path 108" d="M264,400h.984v.984H264Zm0,0" transform="translate(-247.756 -375.389)" fill="#d99962"/>
        <path id="Path_109" data-name="Path 109" d="M136,432h.984v.984H136Zm0,0" transform="translate(-127.632 -405.42)" fill="#d99962"/>
        <path id="Path_110" data-name="Path 110" d="M168,432h.984v.984H168Zm0,0" transform="translate(-157.663 -405.42)" fill="#d99962"/>
        <path id="Path_111" data-name="Path 111" d="M200,432h.984v.984H200Zm0,0" transform="translate(-187.694 -405.42)" fill="#d99962"/>
        <path id="Path_112" data-name="Path 112" d="M232,432h.984v.984H232Zm0,0" transform="translate(-217.725 -405.42)" fill="#d99962"/>
        <path id="Path_113" data-name="Path 113" d="M264,432h.984v.984H264Zm0,0" transform="translate(-247.756 -405.42)" fill="#d99962"/>
        <path id="Path_114" data-name="Path 114" d="M29.042,1.477H25.6V.492A.492.492,0,0,0,25.1,0H20.181a.492.492,0,0,0-.492.492v.984H.492A.492.492,0,0,0,0,1.969V3.938a.492.492,0,0,0,.492.492H1.969v9.352a.492.492,0,0,0,.492.492.492.492,0,1,1-.492.492H.984a1.465,1.465,0,0,0,.377.975L.1,17.425l.006,0a.482.482,0,0,0-.1.29v1.969a.492.492,0,0,0,.144.348l.984.984a.492.492,0,0,0,.348.144H3.446a.492.492,0,0,0,.348-.144l.984-.984a.492.492,0,0,0,.144-.348V17.72a.482.482,0,0,0-.1-.29l.006,0L3.561,15.742a1.468,1.468,0,0,0-.608-2.368V4.43H19.689v.492a.492.492,0,0,0,.492.492h.984V28.549H19.2V8.86h-.984v1.969H15.259V9.845h-.984v.984H11.321v-.492h-.984v.492H7.383V9.352h6.4V8.368h-6.4V6.4H6.4v22.15H5.618L3.3,26.233a.492.492,0,0,0-.7,0L.288,28.549H0v.984H29.534v-.984H29.15a1.463,1.463,0,0,0-.709-2.4,1.477,1.477,0,1,0-2.737,0,1.463,1.463,0,0,0-.709,2.4h-.876V5.415H25.1a.492.492,0,0,0,.492-.492V4.43h3.446a.492.492,0,0,0,.492-.492V1.969a.492.492,0,0,0-.492-.492ZM2.707,16.244l.738.984H1.477l.738-.984Zm1.231,3.242-.7.7H1.68l-.7-.7V18.213H3.938ZM26.925,2.461,25.6,3.347V2.461ZM20.674.984h1.969V2.953H20.674ZM7.383,2.56l1.329.886H6.054ZM4.43,3.347,3.1,2.461H5.759Zm4.578-.886h2.658l-1.329.886Zm4.283.1,1.329.886H11.961Zm1.624-.1h2.658l-1.329.886Zm-13.93,0h.345l1.477.984H.984Zm16.883.984,1.477-.984h.345v.984Zm5.267,23.479L22.249,25.6l.886-1.329Zm0-11.814-.886-1.329.886-1.329Zm-.984.3.886,1.329-.886,1.329Zm0-3.249V9.5l.886,1.329Zm0,9.156.886,1.329-.886,1.329Zm.984-.3-.886-1.326.886-1.329Zm-.886-13.14.886-1.329V9.2Zm-.1-1.624V5.415h.557Zm-3.938,5.562v4.922H15.259V11.814Zm-3.938,0v4.233l-1.132-1.119a.493.493,0,0,0-.345-.142H11.321V11.814Zm-3.938,0v.821H7.383v-.821ZM2.953,27.277l1.273,1.273H1.68Zm4.43,1.273V13.619h2.953V15.28a.492.492,0,0,0,.492.492H12.6l1.827,1.806a.492.492,0,0,0,.345.142h3.446V28.549ZM22.15,27.221l.886,1.329H22.15Zm5.907.837a.492.492,0,1,1,.492-.492A.492.492,0,0,1,28.057,28.057ZM27.073,25.1a.492.492,0,1,1-.492.492A.492.492,0,0,1,27.073,25.1Zm-.984,1.969a.492.492,0,1,1-.492.492A.492.492,0,0,1,26.088,27.073ZM24.611,4.43H20.674V3.938h2.461a.492.492,0,0,0,.492-.492V.985h.984Zm2.609-.984,1.329-.886v.886Zm0,0" transform="translate(0)" fill="#ffedb7"/>
      </g>
    </g>
    <g id="Group_290" data-name="Group 290" transform="translate(8)">
      <g id="Group_165" data-name="Group 165" transform="translate(2030 -1353)">
        <rect id="Rectangle_117-2" data-name="Rectangle 117" width="50" height="50" transform="translate(-1813 1353)" fill="#d98e04"/>
      </g>
      <g id="tape-measure" transform="translate(227.031 14.71)">
        <path id="Path_77" data-name="Path 77" d="M27.517,90.424V81.981a1.209,1.209,0,0,0-.051-.347,1.381,1.381,0,0,1,.167-.029,8.2,8.2,0,0,0-7.96-6.883,8.276,8.276,0,0,0-8.1,8.441v6.12H.545V87.922a.272.272,0,0,0-.545,0v5.242a.272.272,0,0,0,.2.263v.009H14.155c.047,0,.093.007.14.007H25.051a2.723,2.723,0,0,0,2.723-2.723v-.273A1.4,1.4,0,0,1,27.517,90.424ZM.748,92.891V89.828H1.7v1.5h.182v-1.5h.338v.863h.174v-.863h.414v.863h.174v-.863h.442v.863H3.6v-.863h.414v.863h.174v-.863h.328v1.5H4.7v-1.5h.392v.863h.174v-.863h.414v.863H5.85v-.863h.442v.863h.174v-.863H6.88v.863h.174v-.863h.41v1.5h.182v-1.5h.339v.863h.174v-.863h.414v.863h.174v-.863h.442v.863h.174v-.863h.414v.863h.174v-.863h.327v1.5h.182v-1.5h1.112v.892a2.716,2.716,0,0,0,1.085,2.171H.748Zm18.72-13.267a3.4,3.4,0,1,1-3.4,3.4A3.4,3.4,0,0,1,19.468,79.624ZM14.635,90.97H14.25V89.828h.386Zm9.87,0H15.18V89.427h9.326ZM22.151,76.585l.4-.866c.125.058,3.061,1.434,3.841,3.969l-.911.28C24.826,77.845,22.177,76.6,22.151,76.585Zm4.958,13.7a3.7,3.7,0,0,1-1.582-2.49V84.255a3.736,3.736,0,0,1,1.555-2.476.785.785,0,0,1,.027.2Zm-.81-5.87c-.383,0-.59.806-.59,1.566s.207,1.566.59,1.566.589-.807.589-1.566S26.681,84.412,26.3,84.412Zm0,3c-.215,0-.454-.587-.454-1.429s.239-1.43.454-1.43.453.587.453,1.43S26.513,87.407,26.3,87.407Zm.066-2.523c.014.014.148.151.217.671l-.135.018a1.181,1.181,0,0,0-.176-.59Zm-8.28-1.856a1.384,1.384,0,1,1,1.384,1.384A1.384,1.384,0,0,1,18.084,83.028Z" transform="translate(0 -74.723)" fill="#ffedb7"/>
      </g>
    </g>
    <g id="Group_291" data-name="Group 291" transform="translate(12)">
      <rect id="Rectangle_116" data-name="Rectangle 116" width="50" height="50" transform="translate(163)" fill="#262014"/>
      <path id="tool_2_" data-name="tool (2)" d="M69.532,11.2H63.661a.761.761,0,1,0,0,1.522h2.174v6.849H55.576L53.8,17.791V6.126l1.777-1.777h7.045L64.4,6.126V7.583h-.737a.761.761,0,1,0,0,1.522h5.871a.761.761,0,1,0,0-1.522h-.785V4.324L64.423,0H53.775L49.451,4.324V19.592l4.324,4.324H65.836v3.328H61.43a.761.761,0,1,0,0,1.522h4.406v.9a.761.761,0,1,0,1.522,0v-.9h.761a.761.761,0,1,0,0-1.522h-.761V23.917h2.687V19.568H67.358V12.719h2.174a.761.761,0,1,0,0-1.522Z" transform="translate(129.531 10.07)" fill="#ffedb7"/>
    </g>
    <g id="Group_289" data-name="Group 289" transform="translate(4)">
      <g id="Group_162" data-name="Group 162" transform="translate(2084 -1433)">
        <path id="Path_118" data-name="Path 118" d="M0,0H50V50H0Z" transform="translate(-1813 1433)" fill="#d99962"/>
      </g>
      <g id="Group_278" data-name="Group 278" transform="translate(-2 3)">
        <path id="Path_115" data-name="Path 115" d="M49.912,2.134l-1.8-1.8a.347.347,0,0,0-.49,0L37.209,10.745a.347.347,0,0,0-.077.117l-1.141,2.866L31.4,9.135l.824-.824a.346.346,0,0,0-.49-.49l-.824.824L29.526,7.262V.346A.346.346,0,0,0,29.18,0H25.207a.346.346,0,0,0-.346.346V27.939a.346.346,0,0,0,.346.346H29.18a.346.346,0,0,0,.346-.346V24.15H45.434l.968.968a.346.346,0,1,0,.49-.49L36.518,14.254l2.866-1.141a.348.348,0,0,0,.117-.077L49.912,2.624a.346.346,0,0,0,0-.49ZM28.833,27.592H25.554v-.617h.6a.346.346,0,0,0,0-.693h-.6V25.192h.6a.346.346,0,0,0,0-.693h-.6V23.408h.6a.346.346,0,0,0,0-.693h-.6V21.624h.6a.346.346,0,0,0,0-.693h-.6V19.841h.6a.346.346,0,0,0,0-.693h-.6V18.057h.6a.346.346,0,0,0,0-.693h-.6V16.273h.6a.346.346,0,0,0,0-.693h-.6V14.489h.6a.346.346,0,0,0,0-.693h-.6V12.705h.6a.346.346,0,0,0,0-.693h-.6V10.922h.6a.346.346,0,0,0,0-.693h-.6V9.138h.6a.346.346,0,0,0,0-.693h-.6V7.354h.6a.346.346,0,0,0,0-.693h-.6V5.57h.6a.346.346,0,0,0,0-.693h-.6V3.786h.6a.346.346,0,0,0,0-.693h-.6V2h.6a.346.346,0,0,0,0-.693h-.6V.693h3.279v26.9Zm.693-4.136V8.242l1.686,1.686-.986.986a.346.346,0,1,0,.49.49l.986-.986.771.771-.986.986a.346.346,0,1,0,.49.49l.986-.986.771.771-.986.986a.346.346,0,1,0,.49.49l.986-.986.771.771-.986.986a.346.346,0,1,0,.49.49l.986-.986.771.771-.986.986a.346.346,0,1,0,.49.49l.986-.986.771.771-.986.986a.346.346,0,1,0,.49.49l.986-.986.771.771-.986.986a.346.346,0,1,0,.49.49l.986-.986.771.771-.986.986a.346.346,0,1,0,.49.49l.986-.986.771.771L40.317,21a.346.346,0,1,0,.49.49l.986-.986.771.771-.986.986a.346.346,0,1,0,.49.49l.986-.986,1.686,1.686H29.526ZM38.845,11.89,47.46,3.275l.411.411L39.256,12.3Zm-.49-.49-.411-.411L46.56,2.374l.411.411Zm-.774.206,1.057,1.057-1.757.7ZM48.361,3.2,47.05,1.884l.816-.816,1.311,1.311Z" transform="translate(260.406 8.249)" fill="#262014"/>
        <g id="engineering" transform="translate(290.883 3.63)">
          <path id="Path_78" data-name="Path 78" d="M136.353,227.222a.462.462,0,0,0-.789.327v8.205a.462.462,0,0,0,.462.462h8.205a.462.462,0,0,0,.327-.789Zm.135,8.07v-6.627l6.627,6.627Z" transform="translate(-135.564 -209.426)" fill="#262014"/>
          <path id="Path_80" data-name="Path 80" d="M379.4,402.884a.462.462,0,0,0-.654.654l1.427,1.427a.462.462,0,0,0,.654-.654Z" transform="translate(-358.179 -370.322)" fill="#262014"/>
          <path id="Path_81" data-name="Path 81" d="M409.8,433.29a.462.462,0,0,0-.654.654l.029.029a.462.462,0,1,0,.654-.654Z" transform="translate(-386.028 -398.172)" fill="#262014"/>
          <path id="Path_82" data-name="Path 82" d="M237.446,18a.461.461,0,0,0,.327-.136l.074-.074a.462.462,0,0,0-.654-.654l-.074.074a.462.462,0,0,0,.327.789Z" transform="translate(-228.458 -17)" fill="#262014"/>
          <path id="Path_83" data-name="Path 83" d="M207.039,33.665a.461.461,0,0,0,.327-.135l1.427-1.427a.462.462,0,1,0-.654-.654l-1.427,1.427a.462.462,0,0,0,.327.789Z" transform="translate(-200.607 -30.11)" fill="#262014"/>
          <path id="Path_84" data-name="Path 84" d="M176.633,64.07a.461.461,0,0,0,.327-.135l1.427-1.427a.462.462,0,1,0-.654-.654l-1.427,1.427a.462.462,0,0,0,.327.789Z" transform="translate(-172.757 -57.96)" fill="#262014"/>
          <path id="Path_85" data-name="Path 85" d="M146.228,94.476a.461.461,0,0,0,.327-.135l1.427-1.427a.462.462,0,0,0-.654-.654L145.9,93.686a.462.462,0,0,0,.327.789Z" transform="translate(-144.908 -85.809)" fill="#262014"/>
        </g>
      </g>
    </g>
    <g id="Group_292" data-name="Group 292" transform="translate(16)">
      <path id="Rectangle_122" data-name="Rectangle 122" d="M27,0H50a0,0,0,0,1,0,0V50a0,0,0,0,1,0,0H0a0,0,0,0,1,0,0V27A27,27,0,0,1,27,0Z" transform="translate(109 50) rotate(-90)" fill="#d98e04"/>
      <g id="toolbox" transform="translate(119.833 10.07)">
        <g id="Group_277" data-name="Group 277" transform="translate(0 0)">
          <path id="Path_72" data-name="Path 72" d="M3.961,43.248c.052-.026.1-.053.152-.081a.851.851,0,0,0,.082.095l2.88,2.881a.956.956,0,0,1,1.008-.3l.359.107.224-.752-3.2-3.2a.9.9,0,0,0-.164-.128l.008-.033a.811.811,0,0,1,.027-.08c.007-.02.015-.04.022-.062s.019-.043.028-.066c.016-.039.033-.081.055-.123l.06-.122.068-.121a1.613,1.613,0,0,1,.1-.159l.06-.09.055-.074a2.161,2.161,0,0,1,.137-.17l.033-.036a2.016,2.016,0,0,1,.2-.2l.059-.053c.025-.023.049-.046.076-.067l.14-.1a.053.053,0,0,0,.011-.009,1.434,1.434,0,0,1,.2-.123l.085-.048a1.079,1.079,0,0,1,.188-.09l.1-.042.058-.025a.474.474,0,0,1,.062-.024l.154-.043.1-.028a1.061,1.061,0,0,1,.131-.033l.413-.06a.276.276,0,0,0,.154-.077.274.274,0,0,0-.117-.456l-.407-.116a1.539,1.539,0,0,0-.218-.043l-.1-.016-.178-.028a1.082,1.082,0,0,0-.155-.011l-.056,0c-.047,0-.08,0-.115,0a1.981,1.981,0,0,0-.346.007l-.079.006a2.58,2.58,0,0,0-.393.054l-.22.045c-.068.017-.124.034-.181.052l-.069.021a3.768,3.768,0,0,0-.456.169l-.02.008c-.125.052-.239.112-.348.171l-.091.048-.018.01-.106.065c-.1.058-.194.117-.285.185l-.152.109-.022.017-.151.12c-.041.031-.078.063-.114.095a1.357,1.357,0,0,0-.741.381l-.323.322a2.258,2.258,0,0,0-.4.591c-.506-.1-1.192.65-2.216,1.673l2.289,2.288C3.074,44.679,4.059,43.754,3.961,43.248Z" transform="translate(0 -36.752)" fill="#ffedb7"/>
          <path id="Path_73" data-name="Path 73" d="M361.85,64.011l1.442.279,1.468-1.853a1.124,1.124,0,0,1,1.13-.392v-.8h-2.168v1.734h-2.335Z" transform="translate(-339.94 -57.656)" fill="#ffedb7"/>
          <path id="Path_74" data-name="Path 74" d="M124.936,91.961l.445-1.5h-1.943Z" transform="translate(-116.112 -85.138)" fill="#ffedb7"/>
          <path id="Path_75" data-name="Path 75" d="M55.055,15.39V9.836c-.039.053-.078.107-.119.16a4.837,4.837,0,0,1-2.3,1.6h.253V15.39H47.081L49.8,11.68a2.371,2.371,0,0,0,.137-.2,4.11,4.11,0,0,0,5.033-4.809.355.355,0,0,0-.626-.15L52.592,8.74,50.311,8.3l-.952-2.119,1.755-2.215a.355.355,0,0,0-.288-.575,4.11,4.11,0,0,0-3.532,6c-.054.057-.108.118-.159.182l-3.522,4.189.852.852a1.787,1.787,0,0,1,.458.78h-.38a1.423,1.423,0,0,0-.333-.524l-4.848-4.849-.126.423.328.1a.964.964,0,0,1,.65,1.2.968.968,0,0,1-.2.358,1.685,1.685,0,0,1-.061.677l-.435,1.466,1.153,1.152H38.688l.856-2.882a1.253,1.253,0,0,0,0-.724.513.513,0,0,0-.087-.949l-.761-.227,2.068-6.961.065.019.536-1.037.21-1.618L40.681.746,39.986,2.22l-.112,1.163.066.02-2.068,6.962-.792-.235a.513.513,0,0,0-.6.725,1.259,1.259,0,0,0-.414.62L34.9,15.39H33.814V11.6h1.439l.257-.867a1.218,1.218,0,0,1,.238-.458L33.426,7.891A10.242,10.242,0,0,1,32.3,9.271l-.655.655V15.39h-.7v7.587a4.336,4.336,0,0,0,4.336,4.335H51.426a4.335,4.335,0,0,0,4.335-4.335V15.39ZM38.04,12.7a.545.545,0,1,1,1.044.31l-.708,2.384H37.239Zm-1.756-.521a.545.545,0,1,1,1.044.31l-.863,2.906H35.329Z" transform="translate(-29.106 -0.746)" fill="#ffedb7"/>
          <path id="Path_76" data-name="Path 76" d="M184.636,90.461l-.839,2.823,2.7,2.7h1.45l2.411-2.868a4.89,4.89,0,0,1-.242-2.659h-5.485Z" transform="translate(-172.889 -85.137)" fill="#ffedb7"/>
        </g>
      </g>
    </g>
  </g>
</svg>
