<svg xmlns="http://www.w3.org/2000/svg" width="76.911" height="57.812" viewBox="0 0 76.911 57.812">
  <g id="Group_427" data-name="Group 427" transform="translate(-107.48 -57.083)">
    <g id="logo" transform="translate(107.48 57.084)">
      <g id="Layer_1" data-name="Layer 1" transform="translate(0 0)">
        <path id="Path_28" data-name="Path 28" d="M980.5,258.181V245.5h17.531a4.59,4.59,0,0,1,4.7,4.849V264.82l-11.115-10.891-5.893,9.623S984.752,260.867,980.5,258.181Z" transform="translate(-943.723 -245.499)" fill="#ffedb7"/>
        <path id="Path_29" data-name="Path 29" d="M734.793,265.347s-5.073-2.014-8.355-1.417v7.684H719.5V266.69l15.293-11.19Z" transform="translate(-702.193 -254.754)" fill="#ffedb7"/>
        <path id="Path_30" data-name="Path 30" d="M514.579,245.5l-24.767,17.9H487.5l17.307-11.488V249.6s-.522-4.1,4.625-4.1Z" transform="translate(-487.5 -245.5)" fill="#ffedb7"/>
        <path id="Path_31" data-name="Path 31" d="M869.452,476.2H860.5v20.142h3.581a7.259,7.259,0,0,0,5.371-2.368,15.468,15.468,0,0,0,1.94-3h-7.311L872.66,476.2c.037-1.007-2.126-3.991-3.208-4.7Z" transform="translate(-832.675 -454.641)" fill="#ffedb7"/>
        <path id="Path_32" data-name="Path 32" d="M1023.5,740.647h15.666a5.254,5.254,0,0,0,2.984-3.73l18.277,1.417s-1.119.224-2.984-2.835h-30.735S1024.768,739.6,1023.5,740.647Z" transform="translate(-983.515 -698.947)" fill="#ffedb7"/>
        <path id="Path_33" data-name="Path 33" d="M1084.575,461.882l14.4-.075v-5.744l5.781,5.781h2.8L1088.827,444.5l-4.327,7.833S1086.514,456.137,1084.575,461.882Z" transform="translate(-1039.965 -429.655)" fill="#ffedb7"/>
        <path id="Path_34" data-name="Path 34" d="M860.5,425.23V421.5s3.954.075,4.774,1.865v1.865Z" transform="translate(-832.675 -408.371)" fill="#ffedb7"/>
        <path id="Path_35" data-name="Path 35" d="M1002.484,595.5a18.8,18.8,0,0,1-.6,5.52H999.5Z" transform="translate(-961.306 -569.39)" fill="#ffedb7"/>
        <path id="Path_36" data-name="Path 36" d="M567.9,534.5H548.5l12.756,1.194v14.4s0,4.476,5.819,3.954v5.595h.821Z" transform="translate(-543.95 -512.941)" fill="#ffedb7"/>
        <line id="Line_12" data-name="Line 12" x1="0.907" y2="0.924" transform="translate(58.113 19.36)" fill="none"/>
        <line id="Line_13" data-name="Line 13" x1="0.582" y2="0.592" transform="translate(57.906 18.838)" fill="none"/>
        <line id="Line_14" data-name="Line 14" x1="0.583" y2="0.593" transform="translate(57.375 18.315)" fill="none"/>
        <line id="Line_15" data-name="Line 15" x1="0.583" y2="0.592" transform="translate(56.843 17.793)" fill="none"/>
        <line id="Line_16" data-name="Line 16" x1="0.582" y2="0.592" transform="translate(56.312 17.27)" fill="none"/>
        <line id="Line_17" data-name="Line 17" x1="0.908" y2="0.924" transform="translate(55.454 16.748)" fill="none"/>
        <line id="Line_18" data-name="Line 18" x1="0.582" y2="0.593" transform="translate(55.194 16.173)" fill="none"/>
        <line id="Line_19" data-name="Line 19" x1="0.582" y2="0.592" transform="translate(54.662 15.651)" fill="none"/>
        <line id="Line_20" data-name="Line 20" x1="0.583" y2="0.592" transform="translate(54.13 15.129)" fill="none"/>
        <line id="Line_21" data-name="Line 21" x1="0.583" y2="0.592" transform="translate(53.598 14.606)" fill="none"/>
        <line id="Line_22" data-name="Line 22" x1="0.908" y2="0.924" transform="translate(52.741 14.084)" fill="none"/>
        <line id="Line_23" data-name="Line 23" x1="0.582" y2="0.592" transform="translate(52.535 13.561)" fill="none"/>
        <line id="Line_24" data-name="Line 24" x1="0.582" y2="0.592" transform="translate(52.003 13.039)" fill="none"/>
        <line id="Line_25" data-name="Line 25" x1="0.582" y2="0.592" transform="translate(51.472 12.517)" fill="none"/>
        <line id="Line_26" data-name="Line 26" x1="0.582" y2="0.593" transform="translate(50.94 11.994)" fill="none"/>
        <line id="Line_27" data-name="Line 27" x1="0.908" y2="0.924" transform="translate(50.082 11.472)" fill="none"/>
        <line id="Line_28" data-name="Line 28" x1="0.582" y2="0.592" transform="translate(49.876 10.95)" fill="none"/>
        <line id="Line_29" data-name="Line 29" x1="0.582" y2="0.592" transform="translate(49.344 10.427)" fill="none"/>
        <line id="Line_30" data-name="Line 30" x1="0.582" y2="0.592" transform="translate(48.812 9.905)" fill="none"/>
        <g id="Group_156" data-name="Group 156" transform="translate(8.482 0.722)">
          <line id="Line_31" data-name="Line 31" x2="0.574" y2="0.796" transform="translate(15.772 1.31)" fill="#999"/>
          <line id="Line_32" data-name="Line 32" x2="0.574" y2="0.796" transform="translate(16.377 0.874)" fill="#999"/>
          <line id="Line_33" data-name="Line 33" x2="0.575" y2="0.796" transform="translate(16.981 0.436)" fill="#999"/>
          <line id="Line_34" data-name="Line 34" x2="0.897" y2="1.242" transform="translate(17.585)" fill="#999"/>
          <line id="Line_35" data-name="Line 35" x2="0.574" y2="0.796" transform="translate(15.168 1.746)" fill="#999"/>
          <line id="Line_36" data-name="Line 36" x2="0.897" y2="1.242" transform="translate(14.564 2.183)" fill="#999"/>
          <line id="Line_37" data-name="Line 37" x2="0.575" y2="0.796" transform="translate(13.959 2.619)" fill="#999"/>
          <line id="Line_38" data-name="Line 38" x2="0.575" y2="0.796" transform="translate(13.355 3.056)" fill="#999"/>
          <line id="Line_39" data-name="Line 39" x2="0.575" y2="0.796" transform="translate(12.75 3.493)" fill="#999"/>
          <line id="Line_40" data-name="Line 40" x2="0.575" y2="0.796" transform="translate(12.146 3.929)" fill="#999"/>
          <line id="Line_41" data-name="Line 41" x2="0.897" y2="1.242" transform="translate(11.542 4.366)" fill="#999"/>
          <line id="Line_42" data-name="Line 42" x2="0.575" y2="0.796" transform="translate(10.938 4.802)" fill="#999"/>
          <line id="Line_43" data-name="Line 43" x2="0.575" y2="0.796" transform="translate(10.333 5.238)" fill="#999"/>
          <line id="Line_44" data-name="Line 44" x2="0.575" y2="0.796" transform="translate(9.729 5.675)" fill="#999"/>
          <line id="Line_45" data-name="Line 45" x2="0.575" y2="0.796" transform="translate(9.125 6.112)" fill="#999"/>
          <line id="Line_46" data-name="Line 46" x2="0.897" y2="1.241" transform="translate(8.521 6.548)" fill="#999"/>
          <line id="Line_47" data-name="Line 47" x2="0.575" y2="0.796" transform="translate(7.856 7.029)" fill="#999"/>
          <line id="Line_48" data-name="Line 48" x2="0.575" y2="0.796" transform="translate(7.252 7.465)" fill="#999"/>
          <line id="Line_49" data-name="Line 49" x2="0.575" y2="0.796" transform="translate(6.647 7.901)" fill="#999"/>
          <line id="Line_50" data-name="Line 50" x2="0.574" y2="0.796" transform="translate(6.043 8.338)" fill="#999"/>
          <line id="Line_51" data-name="Line 51" x2="0.897" y2="1.242" transform="translate(5.439 8.774)" fill="#999"/>
          <line id="Line_52" data-name="Line 52" x2="0.574" y2="0.796" transform="translate(4.835 9.211)" fill="#999"/>
          <line id="Line_53" data-name="Line 53" x2="0.574" y2="0.796" transform="translate(4.23 9.648)" fill="#999"/>
          <line id="Line_54" data-name="Line 54" x2="0.575" y2="0.796" transform="translate(3.625 10.084)" fill="#999"/>
          <line id="Line_55" data-name="Line 55" x2="0.575" y2="0.796" transform="translate(3.021 10.521)" fill="#999"/>
          <line id="Line_56" data-name="Line 56" x2="0.897" y2="1.242" transform="translate(2.417 10.957)" fill="#999"/>
          <line id="Line_57" data-name="Line 57" x2="0.575" y2="0.796" transform="translate(1.813 11.394)" fill="#999"/>
          <line id="Line_58" data-name="Line 58" x2="0.575" y2="0.796" transform="translate(1.208 11.831)" fill="#999"/>
          <line id="Line_59" data-name="Line 59" x2="0.575" y2="0.796" transform="translate(0.604 12.267)" fill="#999"/>
          <line id="Line_60" data-name="Line 60" x2="0.897" y2="1.242" transform="translate(0 12.703)" fill="#999"/>
        </g>
        <line id="Line_61" data-name="Line 61" x1="0.012" y1="1.296" transform="translate(44.987 35.32)" fill="none"/>
        <line id="Line_62" data-name="Line 62" x1="0.007" y1="0.83" transform="translate(45.736 35.779)" fill="none"/>
        <line id="Line_63" data-name="Line 63" x1="0.007" y1="0.83" transform="translate(46.482 35.772)" fill="none"/>
        <line id="Line_64" data-name="Line 64" x1="0.007" y1="0.83" transform="translate(47.228 35.766)" fill="none"/>
        <line id="Line_65" data-name="Line 65" x1="0.007" y1="0.83" transform="translate(47.973 35.759)" fill="none"/>
        <line id="Line_66" data-name="Line 66" x1="0.011" y1="1.296" transform="translate(48.714 35.287)" fill="none"/>
        <line id="Line_67" data-name="Line 67" x1="0.007" y1="0.83" transform="translate(49.539 35.745)" fill="none"/>
        <line id="Line_68" data-name="Line 68" x1="0.007" y1="0.83" transform="translate(50.284 35.738)" fill="none"/>
        <line id="Line_69" data-name="Line 69" x1="0.007" y1="0.83" transform="translate(51.029 35.731)" fill="none"/>
        <line id="Line_70" data-name="Line 70" x1="0.007" y1="0.83" transform="translate(51.775 35.725)" fill="none"/>
        <line id="Line_71" data-name="Line 71" x1="0.012" y1="1.296" transform="translate(52.516 35.252)" fill="none"/>
        <line id="Line_72" data-name="Line 72" x1="0.007" y1="0.83" transform="translate(53.266 35.711)" fill="none"/>
        <line id="Line_73" data-name="Line 73" x1="0.007" y1="0.83" transform="translate(54.011 35.704)" fill="none"/>
        <line id="Line_74" data-name="Line 74" x1="0.007" y1="0.83" transform="translate(54.757 35.698)" fill="none"/>
        <line id="Line_75" data-name="Line 75" x1="0.007" y1="0.83" transform="translate(55.502 35.691)" fill="none"/>
        <line id="Line_76" data-name="Line 76" x1="0.011" y1="1.296" transform="translate(56.244 35.219)" fill="none"/>
        <line id="Line_77" data-name="Line 77" x1="0.007" y1="0.83" transform="translate(56.993 35.678)" fill="none"/>
        <line id="Line_78" data-name="Line 78" x1="0.007" y1="0.83" transform="translate(57.739 35.671)" fill="none"/>
        <line id="Line_79" data-name="Line 79" x1="0.007" y1="0.83" transform="translate(58.484 35.664)" fill="none"/>
        <g id="Group_157" data-name="Group 157" transform="translate(23.945 22.956)">
          <line id="Line_80" data-name="Line 80" x2="0.982" y2="0.001" transform="translate(0.044 2.236)" fill="#999"/>
          <line id="Line_81" data-name="Line 81" x2="0.982" y2="0.002" transform="translate(0.046 1.49)" fill="#999"/>
          <line id="Line_82" data-name="Line 82" x2="0.982" y2="0.002" transform="translate(0.048 0.745)" fill="#999"/>
          <line id="Line_83" data-name="Line 83" x2="1.532" y2="0.003" transform="translate(0.049)" fill="#999"/>
          <line id="Line_84" data-name="Line 84" x2="0.982" y2="0.002" transform="translate(0.043 2.982)" fill="#999"/>
          <line id="Line_85" data-name="Line 85" x2="1.532" y2="0.004" transform="translate(0.041 3.727)" fill="#999"/>
          <line id="Line_86" data-name="Line 86" x2="0.982" y2="0.002" transform="translate(0.039 4.472)" fill="#999"/>
          <line id="Line_87" data-name="Line 87" x2="0.982" y2="0.002" transform="translate(0.037 5.218)" fill="#999"/>
          <line id="Line_88" data-name="Line 88" x2="0.982" y2="0.002" transform="translate(0.036 5.963)" fill="#999"/>
          <line id="Line_89" data-name="Line 89" x2="0.982" y2="0.002" transform="translate(0.034 6.709)" fill="#999"/>
          <line id="Line_90" data-name="Line 90" x2="1.532" y2="0.003" transform="translate(0.032 7.455)" fill="#999"/>
          <line id="Line_91" data-name="Line 91" x2="0.982" y2="0.002" transform="translate(0.031 8.2)" fill="#999"/>
          <line id="Line_92" data-name="Line 92" x2="0.982" y2="0.002" transform="translate(0.029 8.945)" fill="#999"/>
          <line id="Line_93" data-name="Line 93" x2="0.982" y2="0.002" transform="translate(0.027 9.691)" fill="#999"/>
          <line id="Line_94" data-name="Line 94" x2="0.982" y2="0.002" transform="translate(0.025 10.436)" fill="#999"/>
          <line id="Line_95" data-name="Line 95" x2="1.532" y2="0.004" transform="translate(0.024 11.182)" fill="#999"/>
          <line id="Line_96" data-name="Line 96" x2="0.982" y2="0.002" transform="translate(0.022 12.002)" fill="#999"/>
          <line id="Line_97" data-name="Line 97" x2="0.982" y2="0.002" transform="translate(0.02 12.747)" fill="#999"/>
          <line id="Line_98" data-name="Line 98" x2="0.982" y2="0.002" transform="translate(0.019 13.493)" fill="#999"/>
          <line id="Line_99" data-name="Line 99" x2="0.982" y2="0.002" transform="translate(0.017 14.238)" fill="#999"/>
          <line id="Line_100" data-name="Line 100" x2="1.532" y2="0.003" transform="translate(0.015 14.984)" fill="#999"/>
          <line id="Line_101" data-name="Line 101" x2="0.982" y2="0.002" transform="translate(0.013 15.729)" fill="#999"/>
          <line id="Line_102" data-name="Line 102" x2="0.982" y2="0.002" transform="translate(0.012 16.474)" fill="#999"/>
          <line id="Line_103" data-name="Line 103" x2="0.982" y2="0.002" transform="translate(0.01 17.22)" fill="#999"/>
          <line id="Line_104" data-name="Line 104" x2="0.982" y2="0.002" transform="translate(0.008 17.966)" fill="#999"/>
          <line id="Line_105" data-name="Line 105" x2="1.532" y2="0.004" transform="translate(0.007 18.711)" fill="#999"/>
          <line id="Line_106" data-name="Line 106" x2="0.982" y2="0.002" transform="translate(0.005 19.457)" fill="#999"/>
          <line id="Line_107" data-name="Line 107" x2="0.982" y2="0.002" transform="translate(0.004 20.202)" fill="#999"/>
          <line id="Line_108" data-name="Line 108" x2="0.982" y2="0.002" transform="translate(0.001 20.947)" fill="#999"/>
          <line id="Line_109" data-name="Line 109" x2="1.532" y2="0.003" transform="translate(0 21.693)" fill="#999"/>
        </g>
      </g>
    </g>
    <text id="Yakha" transform="translate(121.48 112.896)" fill="#ffedb7" font-size="8" font-family="SegoeUI, Segoe UI" letter-spacing="0.743em"><tspan x="0" y="0">YAKHA</tspan></text>
  </g>
</svg>
